{"asset":{"version":"2.0","generator":"babylon.js glTF exporter for 3dsmax 2017 v20200107.2"},"scene":0,"scenes":[{"nodes":[0,1,2,3,4,5,6,7,8,9],"extensions":{}}],"nodes":[{"mesh":0,"translation":[-3.39937544,8.702148,-0.397520065],"rotation":[0.0,0.0,0.0,1.0],"scale":[1.0,1.0,1.0],"name":"child_seat_base_part"},{"mesh":1,"translation":[-3.40296745,8.680697,4.079439],"rotation":[0.0,0.0,0.0,1.0],"scale":[1.0,1.0,1.0],"name":"child_seat_base_plastic"},{"mesh":2,"translation":[-3.402969,19.1579018,10.5398417],"rotation":[0.0,0.0,0.0,1.0],"scale":[1.0,1.0,1.0],"name":"clasp"},{"mesh":3,"translation":[-3.40296936,28.4330025,9.417791],"rotation":[0.0,0.0,0.0,1.0],"scale":[1.0,1.0,1.0],"name":"belt"},{"mesh":4,"translation":[-3.40296936,36.81775,3.453642],"rotation":[0.0,0.0,0.0,1.0],"scale":[1.0,1.0,1.0],"name":"child_seat_fabric"},{"mesh":5,"translation":[-3.403019,21.4795952,8.889942],"rotation":[0.0,0.0,0.0,1.0],"scale":[1.0,1.0,1.0],"name":"child_seat_part"},{"mesh":6,"translation":[-3.40296936,34.3866959,5.452341],"rotation":[0.0,0.0,0.0,1.0],"scale":[1.0,1.0,1.0],"name":"child_seat_plastic_body"},{"mesh":7,"translation":[-3.402968,57.7909622,-8.346106],"rotation":[0.0,0.0,0.0,1.0],"scale":[1.0,1.0,1.0],"name":"headrest_plastic_part"},{"mesh":8,"translation":[-3.40296936,51.8108025,-6.07475567],"rotation":[0.0,0.0,0.0,1.0],"scale":[1.0,1.0,1.0],"name":"headrest_fabric_part"},{"translation":[0.0,0.0,0.0],"rotation":[0.0,0.0,0.0,1.0],"scale":[1.0,1.0,1.0],"name":"Default light"}],"meshes":[{"primitives":[{"attributes":{"POSITION":1,"NORMAL":2,"TEXCOORD_0":3},"indices":0,"mode":4,"material":0}],"name":"child_seat_base_part"},{"primitives":[{"attributes":{"POSITION":5,"NORMAL":6,"TEXCOORD_0":7},"indices":4,"mode":4,"material":1}],"name":"child_seat_base_plastic"},{"primitives":[{"attributes":{"POSITION":9,"NORMAL":10,"TEXCOORD_0":11},"indices":8,"mode":4,"material":2}],"name":"clasp"},{"primitives":[{"attributes":{"POSITION":13,"NORMAL":14,"TEXCOORD_0":15},"indices":12,"mode":4,"material":3}],"name":"belt"},{"primitives":[{"attributes":{"POSITION":17,"NORMAL":18,"TEXCOORD_0":19},"indices":16,"mode":4,"material":3}],"name":"child_seat_fabric"},{"primitives":[{"attributes":{"POSITION":21,"NORMAL":22,"TEXCOORD_0":23},"indices":20,"mode":4,"material":0}],"name":"child_seat_part"},{"primitives":[{"attributes":{"POSITION":25,"NORMAL":26,"TEXCOORD_0":27},"indices":24,"mode":4,"material":2}],"name":"child_seat_plastic_body"},{"primitives":[{"attributes":{"POSITION":29,"NORMAL":30,"TEXCOORD_0":31},"indices":28,"mode":4,"material":2}],"name":"headrest_plastic_part"},{"primitives":[{"attributes":{"POSITION":33,"NORMAL":34,"TEXCOORD_0":35},"indices":32,"mode":4,"material":3}],"name":"headrest_fabric_part"}],"accessors":[{"bufferView":0,"componentType":5123,"count":26844,"type":"SCALAR","name":"accessorIndices"},{"bufferView":1,"componentType":5126,"count":26844,"max":[18.4349937,8.22395,27.74374],"min":[-18.4349937,-8.223949,-27.74374],"type":"VEC3","name":"accessorPositions"},{"bufferView":1,"byteOffset":322128,"componentType":5126,"count":26844,"type":"VEC3","name":"accessorNormals"},{"bufferView":2,"componentType":5126,"count":26844,"type":"VEC2","name":"accessorUVs"},{"bufferView":0,"byteOffset":53688,"componentType":5123,"count":36564,"type":"SCALAR","name":"accessorIndices"},{"bufferView":1,"byteOffset":644256,"componentType":5126,"count":36564,"max":[19.6321983,8.6807,24.107502],"min":[-19.6322021,-8.680698,-24.1074982],"type":"VEC3","name":"accessorPositions"},{"bufferView":1,"byteOffset":1083024,"componentType":5126,"count":36564,"type":"VEC3","name":"accessorNormals"},{"bufferView":2,"byteOffset":214752,"componentType":5126,"count":36564,"type":"VEC2","name":"accessorUVs"},{"bufferView":0,"byteOffset":126816,"componentType":5123,"count":7560,"type":"SCALAR","name":"accessorIndices"},{"bufferView":1,"byteOffset":1521792,"componentType":5126,"count":7560,"max":[3.7104,2.28560066,3.01390028],"min":[-3.7104,-2.28560066,-3.01390028],"type":"VEC3","name":"accessorPositions"},{"bufferView":1,"byteOffset":1612512,"componentType":5126,"count":7560,"type":"VEC3","name":"accessorNormals"},{"bufferView":2,"byteOffset":507264,"componentType":5126,"count":7560,"type":"VEC2","name":"accessorUVs"},{"bufferView":0,"byteOffset":141936,"componentType":5123,"count":17004,"type":"SCALAR","name":"accessorIndices"},{"bufferView":1,"byteOffset":1703232,"componentType":5126,"count":17004,"max":[15.6259,25.1410027,25.9805489],"min":[-15.6259,-25.1410027,-25.9805489],"type":"VEC3","name":"accessorPositions"},{"bufferView":1,"byteOffset":1907280,"componentType":5126,"count":17004,"type":"VEC3","name":"accessorNormals"},{"bufferView":2,"byteOffset":567744,"componentType":5126,"count":17004,"type":"VEC2","name":"accessorUVs"},{"bufferView":0,"byteOffset":175944,"componentType":5123,"count":19308,"type":"SCALAR","name":"accessorIndices"},{"bufferView":1,"byteOffset":2111328,"componentType":5126,"count":19308,"max":[24.9668,31.72865,30.7412987],"min":[-24.9668,-31.72865,-30.7413025],"type":"VEC3","name":"accessorPositions"},{"bufferView":1,"byteOffset":2343024,"componentType":5126,"count":19308,"type":"VEC3","name":"accessorNormals"},{"bufferView":2,"byteOffset":703776,"componentType":5126,"count":19308,"type":"VEC2","name":"accessorUVs"},{"bufferView":0,"byteOffset":214560,"componentType":5123,"count":3756,"type":"SCALAR","name":"accessorIndices"},{"bufferView":1,"byteOffset":2574720,"componentType":5126,"count":3756,"max":[11.72565,11.4147,22.6977],"min":[-11.72565,-11.4147,-22.6977],"type":"VEC3","name":"accessorPositions"},{"bufferView":1,"byteOffset":2619792,"componentType":5126,"count":3756,"type":"VEC3","name":"accessorNormals"},{"bufferView":2,"byteOffset":858240,"componentType":5126,"count":3756,"type":"VEC2","name":"accessorUVs"},{"bufferView":0,"byteOffset":222072,"componentType":5123,"count":33888,"type":"SCALAR","name":"accessorIndices"},{"bufferView":1,"byteOffset":2664864,"componentType":5126,"count":33888,"max":[27.3064,30.6654968,28.6565018],"min":[-27.3064,-30.6655,-28.6565018],"type":"VEC3","name":"accessorPositions"},{"bufferView":1,"byteOffset":3071520,"componentType":5126,"count":33888,"type":"VEC3","name":"accessorNormals"},{"bufferView":2,"byteOffset":888288,"componentType":5126,"count":33888,"type":"VEC2","name":"accessorUVs"},{"bufferView":0,"byteOffset":289848,"componentType":5123,"count":5976,"type":"SCALAR","name":"accessorIndices"},{"bufferView":1,"byteOffset":3478176,"componentType":5126,"count":5976,"max":[18.9161,15.6702461,10.54935],"min":[-18.9161,-15.67025,-10.5493488],"type":"VEC3","name":"accessorPositions"},{"bufferView":1,"byteOffset":3549888,"componentType":5126,"count":5976,"type":"VEC3","name":"accessorNormals"},{"bufferView":2,"byteOffset":1159392,"componentType":5126,"count":5976,"type":"VEC2","name":"accessorUVs"},{"bufferView":0,"byteOffset":301800,"componentType":5123,"count":16158,"type":"SCALAR","name":"accessorIndices"},{"bufferView":1,"byteOffset":3621600,"componentType":5126,"count":16158,"max":[20.8847,26.0993958,13.8509979],"min":[-20.8847,-26.0994,-13.851],"type":"VEC3","name":"accessorPositions"},{"bufferView":1,"byteOffset":3815496,"componentType":5126,"count":16158,"type":"VEC3","name":"accessorNormals"},{"bufferView":2,"byteOffset":1207200,"componentType":5126,"count":16158,"type":"VEC2","name":"accessorUVs"}],"bufferViews":[{"buffer":0,"byteLength":334116,"name":"bufferViewScalar"},{"buffer":0,"byteOffset":334116,"byteLength":4009392,"byteStride":12,"name":"bufferViewFloatVec3"},{"buffer":0,"byteOffset":4343508,"byteLength":1336464,"byteStride":8,"name":"bufferViewFloatVec2"}],"buffers":[{"uri":"CarSeat.bin","byteLength":5679972}],"materials":[{"pbrMetallicRoughness":{"baseColorFactor":[0.5,0.5,0.5,1.0],"baseColorTexture":{"index":1,"texCoord":0},"metallicFactor":1.0,"roughnessFactor":1.0,"metallicRoughnessTexture":{"index":2,"texCoord":0}},"normalTexture":{"index":0,"texCoord":0},"emissiveFactor":[0.0,0.0,0.0],"alphaMode":"OPAQUE","name":"child_safety_seat_metal"},{"pbrMetallicRoughness":{"baseColorFactor":[0.5,0.5,0.5,1.0],"baseColorTexture":{"index":4,"texCoord":0},"metallicFactor":1.0,"roughnessFactor":1.0,"metallicRoughnessTexture":{"index":5,"texCoord":0}},"normalTexture":{"index":3,"texCoord":0},"emissiveFactor":[0.0,0.0,0.0],"alphaMode":"OPAQUE","name":"child_safety_seat_plastics_base"},{"pbrMetallicRoughness":{"baseColorFactor":[0.5,0.5,0.5,1.0],"baseColorTexture":{"index":7,"texCoord":0},"metallicFactor":1.0,"roughnessFactor":1.0,"metallicRoughnessTexture":{"index":8,"texCoord":0}},"normalTexture":{"index":6,"texCoord":0},"emissiveFactor":[0.0,0.0,0.0],"alphaMode":"OPAQUE","name":"child_safety_seat_plastic_body"},{"pbrMetallicRoughness":{"baseColorFactor":[0.5,0.5,0.5,1.0],"baseColorTexture":{"index":10,"texCoord":0},"metallicFactor":1.0,"roughnessFactor":1.0,"metallicRoughnessTexture":{"index":11,"texCoord":0}},"normalTexture":{"index":9,"texCoord":0},"emissiveFactor":[0.0,0.0,0.0],"alphaMode":"OPAQUE","name":"child_safety_seat_fabric"}],"textures":[{"sampler":0,"source":0,"name":"Child_Safety_Seat_child_safety_seat_metal_Normal.jpg"},{"sampler":0,"source":1,"name":"Child_Safety_Seat_child_safety_seat_metal_BaseColor.jpg"},{"sampler":0,"source":2,"name":"Child_Safety_Seat_child_safety_seat_metal_RoughnessChild_Safety_Seat_child_safety_seat_metal_Metallic.jpg"},{"sampler":0,"source":3,"name":"Child_Safety_Seat_child_safety_seat_plastics_base_Normal.jpg"},{"sampler":0,"source":4,"name":"Child_Safety_Seat_child_safety_seat_plastics_base_BaseColor.png"},{"sampler":0,"source":5,"name":"Child_Safety_Seat_child_safety_seat_plastics_base_RoughnessChild_Safety_Seat_child_safety_seat_plastics_base_Metallic.jpg"},{"sampler":0,"source":6,"name":"Child_Safety_Seat_child_safety_seat_plastic_body_Normal.jpg"},{"sampler":0,"source":7,"name":"Child_Safety_Seat_child_safety_seat_plastic_body_BaseColor.png"},{"sampler":0,"source":8,"name":"Child_Safety_Seat_child_safety_seat_plastic_body_RoughnessChild_Safety_Seat_child_safety_seat_plastic_body_Metallic.jpg"},{"sampler":0,"source":9,"name":"Child_Safety_Seat_child_safety_seat_fabric_Normal.jpg"},{"sampler":0,"source":10,"name":"Child_Safety_Seat_child_safety_seat_fabric_BaseColor.jpg"},{"sampler":0,"source":11,"name":"Child_Safety_Seat_child_safety_seat_fabric_RoughnessChild_Safety_Seat_child_safety_seat_fabric_Metallic.jpg"}],"images":[{"uri":"gltfTextures/Child_Safety_Seat_child_safety_seat_metal_Normal.jpg"},{"uri":"gltfTextures/Child_Safety_Seat_child_safety_seat_metal_BaseColor.jpg"},{"uri":"gltfTextures/Child_Safety_Seat_child_safety_seat_metal_RoughnessChild_Safety_Seat_child_safety_seat_metal_Metallic.jpg"},{"uri":"gltfTextures/Child_Safety_Seat_child_safety_seat_plastics_base_Normal.jpg"},{"uri":"gltfTextures/Child_Safety_Seat_child_safety_seat_plastics_base_BaseColor.png"},{"uri":"gltfTextures/Child_Safety_Seat_child_safety_seat_plastics_base_RoughnessChild_Safety_Seat_child_safety_seat_plastics_base_Metallic.jpg"},{"uri":"gltfTextures/Child_Safety_Seat_child_safety_seat_plastic_body_Normal.jpg"},{"uri":"gltfTextures/Child_Safety_Seat_child_safety_seat_plastic_body_BaseColor.png"},{"uri":"gltfTextures/Child_Safety_Seat_child_safety_seat_plastic_body_RoughnessChild_Safety_Seat_child_safety_seat_plastic_body_Metallic.jpg"},{"uri":"gltfTextures/Child_Safety_Seat_child_safety_seat_fabric_Normal.jpg"},{"uri":"gltfTextures/Child_Safety_Seat_child_safety_seat_fabric_BaseColor.jpg"},{"uri":"gltfTextures/Child_Safety_Seat_child_safety_seat_fabric_RoughnessChild_Safety_Seat_child_safety_seat_fabric_Metallic.jpg"}],"samplers":[{"magFilter":9729,"minFilter":9987,"wrapS":10497,"wrapT":10497}]}